<?xml version="1.0" encoding="UTF-8"?>
<!DOCTYPE svg PUBLIC "-//W3C//DTD SVG 1.1//EN" "http://www.w3.org/Graphics/SVG/1.1/DTD/svg11.dtd">
<svg xmlns="http://www.w3.org/2000/svg" version="1.1" width="665px" height="700px" style="shape-rendering:geometricPrecision; text-rendering:geometricPrecision; image-rendering:optimizeQuality; fill-rule:evenodd; clip-rule:evenodd" xmlns:xlink="http://www.w3.org/1999/xlink">
<g><path style="opacity:1" fill="#fefefe" d="M -0.5,-0.5 C 221.167,-0.5 442.833,-0.5 664.5,-0.5C 664.5,85.8333 664.5,172.167 664.5,258.5C 662.313,257.242 659.98,256.242 657.5,255.5C 657.158,254.662 656.492,254.328 655.5,254.5C 623.669,253.668 591.669,253.168 559.5,253C 557.623,248.632 556.623,249.132 556.5,254.5C 554.842,244.374 553.842,234.04 553.5,223.5C 552.96,210.48 550.96,197.813 547.5,185.5C 546.484,179.435 545.15,173.435 543.5,167.5C 543.277,160.545 540.943,154.545 536.5,149.5C 532.967,141.431 529.133,133.431 525,125.5C 520.248,118.264 515.748,110.931 511.5,103.5C 510.32,99.8148 508.153,96.8148 505,94.5C 504.51,93.2068 504.343,91.8734 504.5,90.5C 502.784,90.3713 501.117,90.038 499.5,89.5C 495.5,84.8333 491.167,80.5 486.5,76.5C 483.704,73.2026 480.704,70.0359 477.5,67C 472.982,63.2476 468.316,59.7476 463.5,56.5C 458.74,52.0854 453.406,48.4187 447.5,45.5C 430.289,34.7282 411.955,26.3949 392.5,20.5C 389.114,17.7682 385.114,16.7682 380.5,17.5C 351.941,11.783 323.275,11.1163 294.5,15.5C 286.53,16.7545 278.863,18.7545 271.5,21.5C 265.834,22.3904 260.5,24.057 255.5,26.5C 251.064,27.4144 247.064,29.081 243.5,31.5C 216.687,42.9028 193.354,59.2361 173.5,80.5C 168.052,84.6087 163.719,89.6087 160.5,95.5C 139.945,119.608 125.945,147.275 118.5,178.5C 114.999,190.49 112.666,202.824 111.5,215.5C 111.5,218.167 111.5,220.833 111.5,223.5C 110.506,233.653 110.172,243.986 110.5,254.5C 75.9959,254.168 41.6626,254.502 7.5,255.5C 6.44802,255.351 5.44802,255.517 4.5,256C 2.96252,257.707 1.29585,259.207 -0.5,260.5C -0.5,173.5 -0.5,86.5 -0.5,-0.5 Z"/></g>
<g><path style="opacity:1" fill="#579645" d="M 380.5,17.5 C 384.298,18.8684 388.298,19.8684 392.5,20.5C 411.955,26.3949 430.289,34.7282 447.5,45.5C 447.904,46.7564 448.571,47.9231 449.5,49C 448.178,51.5203 448.845,52.0203 451.5,50.5C 455.522,52.511 459.522,54.511 463.5,56.5C 465.564,59.5668 468.231,61.9001 471.5,63.5C 471.297,65.3904 471.963,66.8904 473.5,68C 478.004,70.6888 482.337,73.5222 486.5,76.5C 491.167,80.5 495.5,84.8333 499.5,89.5C 503.155,94.4863 507.155,99.153 511.5,103.5C 515.748,110.931 520.248,118.264 525,125.5C 529.133,133.431 532.967,141.431 536.5,149.5C 539.248,155.424 541.582,161.424 543.5,167.5C 545.15,173.435 546.484,179.435 547.5,185.5C 548.01,192.918 549.01,200.251 550.5,207.5C 549.5,207.5 548.5,207.5 547.5,207.5C 547.192,209.924 547.526,212.257 548.5,214.5C 549.425,213.359 550.259,213.359 551,214.5C 551.953,226.98 552.786,239.313 553.5,251.5C 553.5,252.833 553.5,254.167 553.5,255.5C 588.167,255.5 622.833,255.5 657.5,255.5C 659.98,256.242 662.313,257.242 664.5,258.5C 664.5,264.5 664.5,270.5 664.5,276.5C 549.876,338.311 434.876,399.311 319.5,459.5C 315.778,458.68 313.445,460.013 312.5,463.5C 257.526,493.322 202.193,522.656 146.5,551.5C 141.081,551.732 136.081,553.232 131.5,556C 130.663,557.011 130.33,558.178 130.5,559.5C 128.821,559.285 127.821,559.952 127.5,561.5C 125.234,561.859 123.401,561.192 122,559.5C 121.798,561.256 121.298,562.922 120.5,564.5C 117.96,565.402 115.46,566.402 113,567.5C 110.039,565.968 106.872,565.134 103.5,565C 101.448,564.07 99.9476,562.57 99,560.5C 98.4387,561.022 97.772,561.355 97,561.5C 95.4029,560.115 93.5695,559.449 91.5,559.5C 91.6567,560.873 91.49,562.207 91,563.5C 89.5315,562.011 88.0315,560.677 86.5,559.5C 86.1667,559.5 85.8333,559.5 85.5,559.5C 81.164,544.16 76.8307,528.827 72.5,513.5C 72.1231,510.475 71.9565,507.475 72,504.5C 76.1602,502.004 80.6602,500.504 85.5,500C 87.0368,498.89 87.7035,497.39 87.5,495.5C 96.6494,489.421 106.316,484.088 116.5,479.5C 121.202,476.818 125.869,474.151 130.5,471.5C 145.63,463.768 160.63,455.768 175.5,447.5C 176.5,447.5 177.5,447.5 178.5,447.5C 179.675,447.719 180.675,447.386 181.5,446.5C 180.359,445.575 180.359,444.741 181.5,444C 179.668,443.252 178.001,442.252 176.5,441C 138.075,441.142 99.7419,440.308 61.5,438.5C 58.2025,439.496 54.8692,439.663 51.5,439C 50.3852,436.869 49.0519,435.035 47.5,433.5C 41.9577,415.542 36.6244,397.542 31.5,379.5C 31.5,377.167 31.5,374.833 31.5,372.5C 127.5,372.5 223.5,372.5 319.5,372.5C 319.5,371.167 319.5,369.833 319.5,368.5C 322.385,368.806 325.052,368.473 327.5,367.5C 330.146,365.865 332.813,364.198 335.5,362.5C 340.984,360.593 345.984,357.927 350.5,354.5C 361.63,349.102 372.63,343.435 383.5,337.5C 385.14,336.68 386.807,335.847 388.5,335C 389.738,334.31 389.738,333.81 388.5,333.5C 266.666,332.833 144.666,332.167 22.5,331.5C 142.831,330.5 263.165,330.167 383.5,330.5C 386.187,330.664 388.854,330.497 391.5,330C 389.295,328.573 387.128,328.073 385,328.5C 383.961,327.756 383.461,326.756 383.5,325.5C 261.003,323.834 138.337,322.834 15.5,322.5C 138.134,322.803 260.801,322.469 383.5,321.5C 260.818,320.824 138.151,320.157 15.5,319.5C 12.9497,314.194 10.6164,308.861 8.5,303.5C 8.16667,303.5 7.83333,303.5 7.5,303.5C 5.40559,294.557 2.73893,285.89 -0.5,277.5C -0.5,271.833 -0.5,266.167 -0.5,260.5C 1.29585,259.207 2.96252,257.707 4.5,256C 5.44802,255.517 6.44802,255.351 7.5,255.5C 42.1667,255.5 76.8333,255.5 111.5,255.5C 111.5,244.833 111.5,234.167 111.5,223.5C 111.5,220.833 111.5,218.167 111.5,215.5C 113.815,214.217 115.148,212.217 115.5,209.5C 113.791,204.843 114.291,200.509 117,196.5C 117.556,198.595 118.056,198.762 118.5,197C 117.642,190.863 117.642,184.697 118.5,178.5C 125.945,147.275 139.945,119.608 160.5,95.5C 165.522,91.1414 169.855,86.1414 173.5,80.5C 193.354,59.2361 216.687,42.9028 243.5,31.5C 246.785,30.5975 250.119,29.5975 253.5,28.5C 254.713,28.2528 255.38,27.5862 255.5,26.5C 260.5,24.057 265.834,22.3904 271.5,21.5C 274.187,21.6641 276.854,21.4974 279.5,21C 284.768,19.4911 289.768,17.6578 294.5,15.5C 323.275,11.1163 351.941,11.783 380.5,17.5 Z"/></g>
<g><path style="opacity:1" fill="#6c975e" d="M 294.5,15.5 C 289.768,17.6578 284.768,19.4911 279.5,21C 276.854,21.4974 274.187,21.6641 271.5,21.5C 278.863,18.7545 286.53,16.7545 294.5,15.5 Z"/></g>
<g><path style="opacity:1" fill="#e1f4d8" d="M 380.5,17.5 C 385.114,16.7682 389.114,17.7682 392.5,20.5C 388.298,19.8684 384.298,18.8684 380.5,17.5 Z"/></g>
<g><path style="opacity:1" fill="#709561" d="M 255.5,26.5 C 255.38,27.5862 254.713,28.2528 253.5,28.5C 250.119,29.5975 246.785,30.5975 243.5,31.5C 247.064,29.081 251.064,27.4144 255.5,26.5 Z"/></g>
<g><path style="opacity:1" fill="#69955b" d="M 447.5,45.5 C 453.406,48.4187 458.74,52.0854 463.5,56.5C 459.522,54.511 455.522,52.511 451.5,50.5C 448.845,52.0203 448.178,51.5203 449.5,49C 448.571,47.9231 447.904,46.7564 447.5,45.5 Z"/></g>
<g><path style="opacity:1" fill="#639353" d="M 463.5,56.5 C 468.316,59.7476 472.982,63.2476 477.5,67C 480.704,70.0359 483.704,73.2026 486.5,76.5C 482.337,73.5222 478.004,70.6888 473.5,68C 471.963,66.8904 471.297,65.3904 471.5,63.5C 468.231,61.9001 465.564,59.5668 463.5,56.5 Z"/></g>
<g><path style="opacity:1" fill="#6b945a" d="M 173.5,80.5 C 169.855,86.1414 165.522,91.1414 160.5,95.5C 163.719,89.6087 168.052,84.6087 173.5,80.5 Z"/></g>
<g><path style="opacity:1" fill="#fdfefc" d="M 319.5,91.5 C 335.632,90.8366 351.632,91.8366 367.5,94.5C 368.209,95.404 369.209,95.7373 370.5,95.5C 374.501,97.5889 378.835,98.9223 383.5,99.5C 399.942,106.552 414.942,115.886 428.5,127.5C 434.195,133.526 439.861,139.526 445.5,145.5C 453.111,155.716 459.444,166.716 464.5,178.5C 468.917,189.089 471.917,200.089 473.5,211.5C 474.73,237.533 474.73,263.533 473.5,289.5C 472.5,289.833 471.833,290.5 471.5,291.5C 461.416,295.709 451.749,300.709 442.5,306.5C 441.667,280.173 441.167,253.84 441,227.5C 437.255,187.639 418.088,157.972 383.5,138.5C 375.435,133.808 366.768,130.475 357.5,128.5C 352.988,127.019 348.322,126.352 343.5,126.5C 339.18,125.834 334.68,125.501 330,125.5C 323.586,125.289 317.419,125.955 311.5,127.5C 311.167,127.5 310.833,127.5 310.5,127.5C 299.113,129.177 288.78,133.177 279.5,139.5C 251.537,155.38 233.704,179.046 226,210.5C 223.782,225.067 222.949,239.734 223.5,254.5C 212.5,254.5 201.5,254.5 190.5,254.5C 190.382,240.819 190.716,227.152 191.5,213.5C 198.739,170.969 220.072,137.636 255.5,113.5C 256.71,113.068 257.71,112.401 258.5,111.5C 260.05,110.559 261.716,109.893 263.5,109.5C 271.283,107.388 278.283,104.055 284.5,99.5C 295.6,94.8106 307.267,92.1439 319.5,91.5 Z"/></g>
<g><path style="opacity:1" fill="#7ba66f" d="M 319.5,91.5 C 332.327,90.3398 345.327,90.1731 358.5,91C 361.969,91.5354 364.969,92.7021 367.5,94.5C 351.632,91.8366 335.632,90.8366 319.5,91.5 Z"/></g>
<g><path style="opacity:1" fill="#eafbe6" d="M 499.5,89.5 C 501.117,90.038 502.784,90.3713 504.5,90.5C 504.343,91.8734 504.51,93.2068 505,94.5C 508.153,96.8148 510.32,99.8148 511.5,103.5C 507.155,99.153 503.155,94.4863 499.5,89.5 Z"/></g>
<g><path style="opacity:1" fill="#6a945d" d="M 370.5,95.5 C 375.47,95.4807 379.803,96.814 383.5,99.5C 378.835,98.9223 374.501,97.5889 370.5,95.5 Z"/></g>
<g><path style="opacity:1" fill="#e9f8e2" d="M 284.5,99.5 C 278.283,104.055 271.283,107.388 263.5,109.5C 269.793,104.855 276.793,101.522 284.5,99.5 Z"/></g>
<g><path style="opacity:1" fill="#81917d" d="M 258.5,111.5 C 257.71,112.401 256.71,113.068 255.5,113.5C 255.821,111.952 256.821,111.285 258.5,111.5 Z"/></g>
<g><path style="opacity:1" fill="#66935a" d="M 343.5,126.5 C 332.815,126.39 322.148,126.723 311.5,127.5C 317.419,125.955 323.586,125.289 330,125.5C 334.68,125.501 339.18,125.834 343.5,126.5 Z"/></g>
<g><path style="opacity:1" fill="#619350" d="M 357.5,128.5 C 366.768,130.475 375.435,133.808 383.5,138.5C 378.971,136.563 374.138,135.23 369,134.5C 368.667,135.167 368.333,135.833 368,136.5C 367.51,135.207 367.343,133.873 367.5,132.5C 363.668,132.118 360.335,130.785 357.5,128.5 Z"/></g>
<g><path style="opacity:1" fill="#69965a" d="M 428.5,127.5 C 430.745,128.736 432.911,129.402 435,129.5C 435.333,130.833 435.667,132.167 436,133.5C 439.064,135.451 441.731,137.785 444,140.5C 444.608,142.154 445.108,143.821 445.5,145.5C 439.861,139.526 434.195,133.526 428.5,127.5 Z"/></g>
<g><path style="opacity:1" fill="#659655" d="M 310.5,127.5 C 310.64,129.124 309.973,130.29 308.5,131C 305.57,132.659 302.57,132.992 299.5,132C 294.358,133.941 289.358,136.274 284.5,139C 282.866,139.494 281.199,139.66 279.5,139.5C 288.78,133.177 299.113,129.177 310.5,127.5 Z"/></g>
<g><path style="opacity:1" fill="#eefbe7" d="M 536.5,149.5 C 540.943,154.545 543.277,160.545 543.5,167.5C 541.582,161.424 539.248,155.424 536.5,149.5 Z"/></g>
<g><path style="opacity:1" fill="#ddf4d5" d="M 330.5,203.5 C 327.156,205.318 323.489,206.318 319.5,206.5C 322.799,204.517 326.466,203.517 330.5,203.5 Z"/></g>
<g><path style="opacity:1" fill="#fbfdfb" d="M 330.5,203.5 C 346.485,203.735 356.985,211.402 362,226.5C 362.5,236.161 362.666,245.828 362.5,255.5C 342.5,255.5 322.5,255.5 302.5,255.5C 302.071,244.755 302.571,234.088 304,223.5C 306.989,215.685 312.156,210.018 319.5,206.5C 323.489,206.318 327.156,205.318 330.5,203.5 Z"/></g>
<g><path style="opacity:1" fill="#619552" d="M 547.5,185.5 C 550.96,197.813 552.96,210.48 553.5,223.5C 553.5,232.833 553.5,242.167 553.5,251.5C 552.786,239.313 551.953,226.98 551,214.5C 550.259,213.359 549.425,213.359 548.5,214.5C 547.526,212.257 547.192,209.924 547.5,207.5C 548.5,207.5 549.5,207.5 550.5,207.5C 549.01,200.251 548.01,192.918 547.5,185.5 Z"/></g>
<g><path style="opacity:1" fill="#699a5a" d="M 118.5,178.5 C 117.642,184.697 117.642,190.863 118.5,197C 118.056,198.762 117.556,198.595 117,196.5C 114.291,200.509 113.791,204.843 115.5,209.5C 115.148,212.217 113.815,214.217 111.5,215.5C 112.666,202.824 114.999,190.49 118.5,178.5 Z"/></g>
<g><path style="opacity:1" fill="#5c904e" d="M 190.5,213.5 C 189.634,227.48 189.301,241.48 189.5,255.5C 188.504,242.323 188.004,228.99 188,215.5C 188.417,214.244 189.25,213.577 190.5,213.5 Z"/></g>
<g><path style="opacity:1" fill="#e9f6e3" d="M 473.5,211.5 C 474.317,213.969 474.817,216.635 475,219.5C 475.167,231.167 475.333,242.833 475.5,254.5C 475.499,266.52 474.832,278.186 473.5,289.5C 474.73,263.533 474.73,237.533 473.5,211.5 Z"/></g>
<g><path style="opacity:1" fill="#d5e7cf" d="M 190.5,213.5 C 190.833,213.5 191.167,213.5 191.5,213.5C 190.716,227.152 190.382,240.819 190.5,254.5C 201.5,254.5 212.5,254.5 223.5,254.5C 212.346,255.495 201.012,255.828 189.5,255.5C 189.301,241.48 189.634,227.48 190.5,213.5 Z"/></g>
<g><path style="opacity:1" fill="#509b3b" d="M 476.5,223.5 C 478.489,244.474 479.156,265.807 478.5,287.5C 476.511,266.526 475.844,245.193 476.5,223.5 Z"/></g>
<g><path style="opacity:1" fill="#f8fef5" d="M 655.5,254.5 C 622.5,254.5 589.5,254.5 556.5,254.5C 556.623,249.132 557.623,248.632 559.5,253C 591.669,253.168 623.669,253.668 655.5,254.5 Z"/></g>
<g><path style="opacity:1" fill="#c0cbbd" d="M 111.5,223.5 C 111.5,234.167 111.5,244.833 111.5,255.5C 76.8333,255.5 42.1667,255.5 7.5,255.5C 41.6626,254.502 75.9959,254.168 110.5,254.5C 110.172,243.986 110.506,233.653 111.5,223.5 Z"/></g>
<g><path style="opacity:1" fill="#bfcdbc" d="M 553.5,223.5 C 553.842,234.04 554.842,244.374 556.5,254.5C 589.5,254.5 622.5,254.5 655.5,254.5C 656.492,254.328 657.158,254.662 657.5,255.5C 622.833,255.5 588.167,255.5 553.5,255.5C 553.5,254.167 553.5,252.833 553.5,251.5C 553.5,242.167 553.5,232.833 553.5,223.5 Z"/></g>
<g><path style="opacity:1" fill="#609152" d="M 464.5,178.5 C 465.75,178.577 466.583,179.244 467,180.5C 468.742,186.725 471.075,192.725 474,198.5C 475.017,206.822 475.851,215.155 476.5,223.5C 475.844,245.193 476.511,266.526 478.5,287.5C 477.145,290.518 474.812,291.851 471.5,291.5C 471.833,290.5 472.5,289.833 473.5,289.5C 474.832,278.186 475.499,266.52 475.5,254.5C 475.333,242.833 475.167,231.167 475,219.5C 474.817,216.635 474.317,213.969 473.5,211.5C 471.917,200.089 468.917,189.089 464.5,178.5 Z"/></g>
<g><path style="opacity:1" fill="#fdfefd" d="M 664.5,276.5 C 664.5,417.5 664.5,558.5 664.5,699.5C 501.5,699.5 338.5,699.5 175.5,699.5C 282.833,698.833 390.167,698.167 497.5,697.5C 499.786,697.405 501.786,696.738 503.5,695.5C 511.688,696.001 518.855,693.668 525,688.5C 526.84,689.833 527.34,689.666 526.5,688C 526.998,686.842 527.831,686.009 529,685.5C 533.16,688.365 533.993,687.865 531.5,684C 532.429,682.923 533.096,681.756 533.5,680.5C 543.502,670.499 549.835,658.499 552.5,644.5C 555.432,637.466 557.765,630.133 559.5,622.5C 559.5,621.5 559.5,620.5 559.5,619.5C 559.5,619.167 559.5,618.833 559.5,618.5C 458.833,617.833 358.167,617.167 257.5,616.5C 258.514,615.326 259.847,614.66 261.5,614.5C 263.199,614.66 264.866,614.494 266.5,614C 269.126,611.854 272.126,610.521 275.5,610C 280.105,608.212 284.105,605.712 287.5,602.5C 298.167,597.167 308.833,591.833 319.5,586.5C 322.016,586.245 324.35,585.411 326.5,584C 408.167,583.667 489.833,583.333 571.5,583C 572.867,580.699 573.534,578.199 573.5,575.5C 574.117,575.389 574.617,575.056 575,574.5C 577.414,563.822 580.58,553.488 584.5,543.5C 587.688,538.778 589.355,533.444 589.5,527.5C 589.756,524.402 590.422,521.402 591.5,518.5C 592.5,518.5 593.5,518.5 594.5,518.5C 594.379,514.175 595.046,510.009 596.5,506C 595.601,504.764 594.434,503.93 593,503.5C 557.863,504.657 522.696,504.823 487.5,504C 487.833,503.667 488.167,503.333 488.5,503C 487.692,502.692 487.025,502.192 486.5,501.5C 487.193,500.482 487.859,499.482 488.5,498.5C 509.833,486.833 531.167,475.167 552.5,463.5C 560.332,459.751 567.999,455.751 575.5,451.5C 578.76,450.226 581.76,448.56 584.5,446.5C 588.151,445.341 591.485,443.674 594.5,441.5C 601.416,437.874 608.416,434.541 615.5,431.5C 617.117,430.962 618.784,430.629 620.5,430.5C 622.124,425.626 623.124,420.626 623.5,415.5C 628.836,396.822 634.169,378.155 639.5,359.5C 643.749,348.841 646.916,337.841 649,326.5C 647.951,325.483 646.784,325.316 645.5,326C 640.113,328.354 635.113,331.188 630.5,334.5C 622.734,338.217 615.067,342.217 607.5,346.5C 604.243,347.769 601.243,349.436 598.5,351.5C 590.668,355.249 583.001,359.249 575.5,363.5C 522.181,391.809 468.848,420.142 415.5,448.5C 390.375,461.563 365.375,474.896 340.5,488.5C 261.823,529.675 183.157,571.175 104.5,613C 103.424,614.726 103.257,616.559 104,618.5C 106.224,626.338 108.724,634.005 111.5,641.5C 113.135,652.76 117.468,662.76 124.5,671.5C 130.312,679.4 137.645,685.4 146.5,689.5C 152.066,693.021 158.066,695.354 164.5,696.5C 165.263,697.268 166.263,697.768 167.5,698C 166.944,698.383 166.611,698.883 166.5,699.5C 110.833,699.5 55.1667,699.5 -0.5,699.5C -0.5,558.833 -0.5,418.167 -0.5,277.5C 2.73893,285.89 5.40559,294.557 7.5,303.5C 8.19684,311.758 10.0302,319.758 13,327.5C 13.6708,328.252 14.5041,328.586 15.5,328.5C 15.5,328.833 15.5,329.167 15.5,329.5C 15.5,331.167 15.5,332.833 15.5,334.5C 138.167,334.5 260.833,334.5 383.5,334.5C 383.5,335.5 383.5,336.5 383.5,337.5C 372.63,343.435 361.63,349.102 350.5,354.5C 348.738,354.357 347.071,354.691 345.5,355.5C 342.847,357.724 339.847,359.391 336.5,360.5C 335.702,360.957 335.369,361.624 335.5,362.5C 332.813,364.198 330.146,365.865 327.5,367.5C 228.166,367.333 128.833,367.5 29.5,368C 28.7927,372.053 29.4594,375.886 31.5,379.5C 36.6244,397.542 41.9577,415.542 47.5,433.5C 48.4144,437.936 50.081,441.936 52.5,445.5C 93.5,446.167 134.5,446.833 175.5,447.5C 160.63,455.768 145.63,463.768 130.5,471.5C 126.066,471.361 122.399,472.861 119.5,476C 118.552,476.483 117.552,476.649 116.5,476.5C 116.5,477.5 116.5,478.5 116.5,479.5C 106.316,484.088 96.6494,489.421 87.5,495.5C 81.3711,497.815 75.5377,500.815 70,504.5C 69.9302,507.786 70.7635,510.786 72.5,513.5C 76.8307,528.827 81.164,544.16 85.5,559.5C 86.3586,566.317 87.692,572.983 89.5,579.5C 90.5,579.5 91.5,579.5 92.5,579.5C 95.9122,578.958 98.9122,577.625 101.5,575.5C 101.833,575.5 102.167,575.5 102.5,575.5C 111.062,571.057 119.395,566.39 127.5,561.5C 134.347,558.912 140.68,555.579 146.5,551.5C 202.193,522.656 257.526,493.322 312.5,463.5C 315.331,462.921 317.664,461.588 319.5,459.5C 434.876,399.311 549.876,338.311 664.5,276.5 Z"/></g>
<g><path style="opacity:1" fill="#e6f6e1" d="M 7.5,303.5 C 7.83333,303.5 8.16667,303.5 8.5,303.5C 10.2589,311.436 12.5922,319.102 15.5,326.5C 15.5,326.833 15.5,327.167 15.5,327.5C 15.5,327.833 15.5,328.167 15.5,328.5C 14.5041,328.586 13.6708,328.252 13,327.5C 10.0302,319.758 8.19684,311.758 7.5,303.5 Z"/></g>
<g><path style="opacity:1" fill="#569741" d="M 15.5,319.5 C 138.151,320.157 260.818,320.824 383.5,321.5C 260.801,322.469 138.134,322.803 15.5,322.5C 15.5,321.5 15.5,320.5 15.5,319.5 Z"/></g>
<g><path style="opacity:1" fill="#59944a" d="M 8.5,303.5 C 10.6164,308.861 12.9497,314.194 15.5,319.5C 15.5,320.5 15.5,321.5 15.5,322.5C 138.337,322.834 261.003,323.834 383.5,325.5C 260.751,325.197 138.084,325.531 15.5,326.5C 12.5922,319.102 10.2589,311.436 8.5,303.5 Z"/></g>
<g><path style="opacity:1" fill="#539841" d="M 383.5,325.5 C 383.461,326.756 383.961,327.756 385,328.5C 387.128,328.073 389.295,328.573 391.5,330C 388.854,330.497 386.187,330.664 383.5,330.5C 261.154,328.823 138.487,327.823 15.5,327.5C 15.5,327.167 15.5,326.833 15.5,326.5C 138.084,325.531 260.751,325.197 383.5,325.5 Z"/></g>
<g><path style="opacity:1" fill="#5e964e" d="M 15.5,327.5 C 138.487,327.823 261.154,328.823 383.5,330.5C 263.165,330.167 142.831,330.5 22.5,331.5C 144.666,332.167 266.666,332.833 388.5,333.5C 264.833,333.667 141.166,333.5 17.5,333C 16.9152,331.698 16.2485,330.531 15.5,329.5C 15.5,329.167 15.5,328.833 15.5,328.5C 15.5,328.167 15.5,327.833 15.5,327.5 Z"/></g>
<g><path style="opacity:1" fill="#f6fef1" d="M 15.5,329.5 C 16.2485,330.531 16.9152,331.698 17.5,333C 141.166,333.5 264.833,333.667 388.5,333.5C 389.738,333.81 389.738,334.31 388.5,335C 386.807,335.847 385.14,336.68 383.5,337.5C 383.5,336.5 383.5,335.5 383.5,334.5C 260.833,334.5 138.167,334.5 15.5,334.5C 15.5,332.833 15.5,331.167 15.5,329.5 Z"/></g>
<g><path style="opacity:1" fill="#5f934e" d="M 639.5,359.5 C 640.74,351.386 642.407,343.386 644.5,335.5C 643.5,335.5 642.5,335.5 641.5,335.5C 641.688,337.103 641.188,338.437 640,339.5C 639.505,337.527 639.338,335.527 639.5,333.5C 643.193,334.056 645.86,332.722 647.5,329.5C 647,329.167 646.5,328.833 646,328.5C 640.812,330.687 635.645,332.687 630.5,334.5C 635.113,331.188 640.113,328.354 645.5,326C 646.784,325.316 647.951,325.483 649,326.5C 646.916,337.841 643.749,348.841 639.5,359.5 Z"/></g>
<g><path style="opacity:1" fill="#579645" d="M 639.5,359.5 C 634.169,378.155 628.836,396.822 623.5,415.5C 621.535,419.559 620.035,423.892 619,428.5C 617.482,429.163 616.315,430.163 615.5,431.5C 608.416,434.541 601.416,437.874 594.5,441.5C 591.834,441.933 589.168,442.433 586.5,443C 585.177,443.816 584.511,444.983 584.5,446.5C 581.76,448.56 578.76,450.226 575.5,451.5C 574.127,451.343 572.793,451.51 571.5,452C 566.216,455.475 560.549,458.142 554.5,460C 553.177,460.816 552.511,461.983 552.5,463.5C 531.167,475.167 509.833,486.833 488.5,498.5C 484.016,500.243 479.683,502.243 475.5,504.5C 474.957,504.56 474.624,504.893 474.5,505.5C 513.842,505.836 552.842,506.836 591.5,508.5C 554.165,508.333 516.832,508.5 479.5,509C 516.793,510.469 554.126,510.969 591.5,510.5C 591.5,512.5 591.5,514.5 591.5,516.5C 591.5,517.167 591.5,517.833 591.5,518.5C 590.422,521.402 589.756,524.402 589.5,527.5C 587.057,532.5 585.39,537.834 584.5,543.5C 580.58,553.488 577.414,563.822 575,574.5C 574.617,575.056 574.117,575.389 573.5,575.5C 572.9,576.9 571.9,577.9 570.5,578.5C 570.5,577.5 570.5,576.5 570.5,575.5C 569.5,575.5 568.5,575.5 567.5,575.5C 567.5,577.167 567.5,578.833 567.5,580.5C 564.856,580.84 562.523,580.173 560.5,578.5C 483.978,580.327 407.311,581.16 330.5,581C 331.056,581.383 331.389,581.883 331.5,582.5C 326.566,581.74 322.566,583.073 319.5,586.5C 308.833,591.833 298.167,597.167 287.5,602.5C 281.914,605.029 276.247,607.362 270.5,609.5C 268.473,609.338 266.473,609.505 264.5,610C 261.356,612.213 258.356,614.379 255.5,616.5C 255.082,617.222 254.416,617.722 253.5,618C 355.499,618.5 457.499,618.667 559.5,618.5C 559.5,618.833 559.5,619.167 559.5,619.5C 459.833,619.333 360.166,619.5 260.5,620C 258.579,620.36 256.912,621.194 255.5,622.5C 256.7,623.292 258.033,623.292 259.5,622.5C 355.332,623.499 451.332,623.833 547.5,623.5C 548.224,635.373 549.558,635.373 551.5,623.5C 552.833,623.5 554.167,623.5 555.5,623.5C 554.924,630.562 553.924,637.562 552.5,644.5C 549.835,658.499 543.502,670.499 533.5,680.5C 526.748,685.543 519.415,689.543 511.5,692.5C 506.589,692.033 501.922,692.7 497.5,694.5C 388.678,693.172 279.845,693.172 171,694.5C 168.409,694.435 165.909,693.935 163.5,693C 164.5,692.167 165.5,691.333 166.5,690.5C 164.257,689.526 161.924,689.192 159.5,689.5C 159.5,690.5 159.5,691.5 159.5,692.5C 155.094,691.796 150.76,690.796 146.5,689.5C 137.645,685.4 130.312,679.4 124.5,671.5C 125.093,668.404 124.093,666.071 121.5,664.5C 117.84,657.686 115.173,650.519 113.5,643C 113.164,641.97 112.497,641.47 111.5,641.5C 108.724,634.005 106.224,626.338 104,618.5C 103.257,616.559 103.424,614.726 104.5,613C 183.157,571.175 261.823,529.675 340.5,488.5C 346.088,486.35 349.755,488.017 351.5,493.5C 354.947,493.186 358.28,492.352 361.5,491C 362.255,487.793 364.255,486.293 367.5,486.5C 367.663,484.143 367.497,481.81 367,479.5C 364.037,484.481 359.703,487.481 354,488.5C 352.129,488.291 350.962,487.291 350.5,485.5C 354.702,485.237 357.702,483.237 359.5,479.5C 362.936,478.302 366.103,476.636 369,474.5C 373.597,478.292 378.097,478.292 382.5,474.5C 383.429,473.311 383.762,471.978 383.5,470.5C 385.5,470.5 387.5,470.5 389.5,470.5C 390.138,468.201 391.138,466.034 392.5,464C 392.167,463.667 391.833,463.333 391.5,463C 393.25,461.681 395.25,461.181 397.5,461.5C 397.36,459.876 398.027,458.71 399.5,458C 402.792,457.064 405.792,457.564 408.5,459.5C 410.618,458.054 412.951,457.387 415.5,457.5C 415.5,456.5 415.5,455.5 415.5,454.5C 412.91,454.396 410.577,455.063 408.5,456.5C 407.833,456.167 407.167,455.833 406.5,455.5C 409.879,453.431 412.879,451.098 415.5,448.5C 468.848,420.142 522.181,391.809 575.5,363.5C 582.396,360.786 589.396,358.286 596.5,356C 598.037,354.89 598.703,353.39 598.5,351.5C 599.873,351.657 601.207,351.49 602.5,351C 604.398,349.583 606.064,348.083 607.5,346.5C 615.067,342.217 622.734,338.217 630.5,334.5C 635.645,332.687 640.812,330.687 646,328.5C 646.5,328.833 647,329.167 647.5,329.5C 645.86,332.722 643.193,334.056 639.5,333.5C 639.338,335.527 639.505,337.527 640,339.5C 641.188,338.437 641.688,337.103 641.5,335.5C 642.5,335.5 643.5,335.5 644.5,335.5C 642.407,343.386 640.74,351.386 639.5,359.5 Z"/></g>
<g><path style="opacity:1" fill="#678f5a" d="M 607.5,346.5 C 606.064,348.083 604.398,349.583 602.5,351C 601.207,351.49 599.873,351.657 598.5,351.5C 601.243,349.436 604.243,347.769 607.5,346.5 Z"/></g>
<g><path style="opacity:1" fill="#609352" d="M 598.5,351.5 C 598.703,353.39 598.037,354.89 596.5,356C 589.396,358.286 582.396,360.786 575.5,363.5C 583.001,359.249 590.668,355.249 598.5,351.5 Z"/></g>
<g><path style="opacity:1" fill="#eaf8e6" d="M 350.5,354.5 C 345.984,357.927 340.984,360.593 335.5,362.5C 335.369,361.624 335.702,360.957 336.5,360.5C 339.847,359.391 342.847,357.724 345.5,355.5C 347.071,354.691 348.738,354.357 350.5,354.5 Z"/></g>
<g><path style="opacity:1" fill="#5d984b" d="M 327.5,367.5 C 325.052,368.473 322.385,368.806 319.5,368.5C 319.5,369.833 319.5,371.167 319.5,372.5C 223.5,372.5 127.5,372.5 31.5,372.5C 31.5,374.833 31.5,377.167 31.5,379.5C 29.4594,375.886 28.7927,372.053 29.5,368C 128.833,367.5 228.166,367.333 327.5,367.5 Z"/></g>
<g><path style="opacity:1" fill="#eaf7e3" d="M 623.5,415.5 C 623.124,420.626 622.124,425.626 620.5,430.5C 618.784,430.629 617.117,430.962 615.5,431.5C 616.315,430.163 617.482,429.163 619,428.5C 620.035,423.892 621.535,419.559 623.5,415.5 Z"/></g>
<g><path style="opacity:1" fill="#599449" d="M 47.5,433.5 C 49.0519,435.035 50.3852,436.869 51.5,439C 54.8692,439.663 58.2025,439.496 61.5,438.5C 99.7419,440.308 138.075,441.142 176.5,441C 178.001,442.252 179.668,443.252 181.5,444C 180.359,444.741 180.359,445.575 181.5,446.5C 180.675,447.386 179.675,447.719 178.5,447.5C 136.847,445.505 94.8466,444.839 52.5,445.5C 50.081,441.936 48.4144,437.936 47.5,433.5 Z"/></g>
<g><path style="opacity:1" fill="#549841" d="M 53.5,441.5 C 94.1612,442.107 134.828,442.774 175.5,443.5C 134.5,444.833 93.5,444.833 52.5,443.5C 52.8627,442.817 53.1961,442.15 53.5,441.5 Z"/></g>
<g><path style="opacity:1" fill="#68955b" d="M 594.5,441.5 C 591.485,443.674 588.151,445.341 584.5,446.5C 584.511,444.983 585.177,443.816 586.5,443C 589.168,442.433 591.834,441.933 594.5,441.5 Z"/></g>
<g><path style="opacity:1" fill="#acc7a4" d="M 52.5,445.5 C 94.8466,444.839 136.847,445.505 178.5,447.5C 177.5,447.5 176.5,447.5 175.5,447.5C 134.5,446.833 93.5,446.167 52.5,445.5 Z"/></g>
<g><path style="opacity:1" fill="#679558" d="M 575.5,451.5 C 567.999,455.751 560.332,459.751 552.5,463.5C 552.511,461.983 553.177,460.816 554.5,460C 560.549,458.142 566.216,455.475 571.5,452C 572.793,451.51 574.127,451.343 575.5,451.5 Z"/></g>
<g><path style="opacity:1" fill="#68965c" d="M 319.5,459.5 C 317.664,461.588 315.331,462.921 312.5,463.5C 313.445,460.013 315.778,458.68 319.5,459.5 Z"/></g>
<g><path style="opacity:1" fill="#5c954a" d="M 415.5,448.5 C 412.879,451.098 409.879,453.431 406.5,455.5C 407.167,455.833 407.833,456.167 408.5,456.5C 410.577,455.063 412.91,454.396 415.5,454.5C 415.5,455.5 415.5,456.5 415.5,457.5C 412.951,457.387 410.618,458.054 408.5,459.5C 405.792,457.564 402.792,457.064 399.5,458C 398.027,458.71 397.36,459.876 397.5,461.5C 395.25,461.181 393.25,461.681 391.5,463C 391.833,463.333 392.167,463.667 392.5,464C 391.138,466.034 390.138,468.201 389.5,470.5C 387.5,470.5 385.5,470.5 383.5,470.5C 383.762,471.978 383.429,473.311 382.5,474.5C 378.097,478.292 373.597,478.292 369,474.5C 366.103,476.636 362.936,478.302 359.5,479.5C 357.702,483.237 354.702,485.237 350.5,485.5C 350.962,487.291 352.129,488.291 354,488.5C 359.703,487.481 364.037,484.481 367,479.5C 367.497,481.81 367.663,484.143 367.5,486.5C 364.255,486.293 362.255,487.793 361.5,491C 358.28,492.352 354.947,493.186 351.5,493.5C 349.755,488.017 346.088,486.35 340.5,488.5C 365.375,474.896 390.375,461.563 415.5,448.5 Z"/></g>
<g><path style="opacity:1" fill="#ecfae6" d="M 130.5,471.5 C 125.869,474.151 121.202,476.818 116.5,479.5C 116.5,478.5 116.5,477.5 116.5,476.5C 117.552,476.649 118.552,476.483 119.5,476C 122.399,472.861 126.066,471.361 130.5,471.5 Z"/></g>
<g><path style="opacity:1" fill="#639355" d="M 87.5,495.5 C 87.7035,497.39 87.0368,498.89 85.5,500C 80.6602,500.504 76.1602,502.004 72,504.5C 71.9565,507.475 72.1231,510.475 72.5,513.5C 70.7635,510.786 69.9302,507.786 70,504.5C 75.5377,500.815 81.3711,497.815 87.5,495.5 Z"/></g>
<g><path style="opacity:1" fill="#f4fdef" d="M 488.5,498.5 C 487.859,499.482 487.193,500.482 486.5,501.5C 487.025,502.192 487.692,502.692 488.5,503C 488.167,503.333 487.833,503.667 487.5,504C 522.696,504.823 557.863,504.657 593,503.5C 594.434,503.93 595.601,504.764 596.5,506C 595.046,510.009 594.379,514.175 594.5,518.5C 593.5,518.5 592.5,518.5 591.5,518.5C 591.5,517.833 591.5,517.167 591.5,516.5C 592.738,514.786 593.405,512.786 593.5,510.5C 594.801,509.116 594.801,507.616 593.5,506C 553.998,505.833 514.665,505.333 475.5,504.5C 479.683,502.243 484.016,500.243 488.5,498.5 Z"/></g>
<g><path style="opacity:1" fill="#6d9e61" d="M 475.5,504.5 C 514.665,505.333 553.998,505.833 593.5,506C 594.801,507.616 594.801,509.116 593.5,510.5C 593.167,509.5 592.5,508.833 591.5,508.5C 552.842,506.836 513.842,505.836 474.5,505.5C 474.624,504.893 474.957,504.56 475.5,504.5 Z"/></g>
<g><path style="opacity:1" fill="#5b9249" d="M 591.5,508.5 C 592.5,508.833 593.167,509.5 593.5,510.5C 593.405,512.786 592.738,514.786 591.5,516.5C 591.5,514.5 591.5,512.5 591.5,510.5C 554.126,510.969 516.793,510.469 479.5,509C 516.832,508.5 554.165,508.333 591.5,508.5 Z"/></g>
<g><path style="opacity:1" fill="#e2f5d9" d="M 589.5,527.5 C 589.355,533.444 587.688,538.778 584.5,543.5C 585.39,537.834 587.057,532.5 589.5,527.5 Z"/></g>
<g><path style="opacity:1" fill="#629450" d="M 146.5,551.5 C 140.68,555.579 134.347,558.912 127.5,561.5C 127.821,559.952 128.821,559.285 130.5,559.5C 130.33,558.178 130.663,557.011 131.5,556C 136.081,553.232 141.081,551.732 146.5,551.5 Z"/></g>
<g><path style="opacity:1" fill="#5c954c" d="M 86.5,559.5 C 88.0315,560.677 89.5315,562.011 91,563.5C 91.49,562.207 91.6567,560.873 91.5,559.5C 93.5695,559.449 95.4029,560.115 97,561.5C 97.772,561.355 98.4387,561.022 99,560.5C 99.9476,562.57 101.448,564.07 103.5,565C 106.872,565.134 110.039,565.968 113,567.5C 115.46,566.402 117.96,565.402 120.5,564.5C 121.298,562.922 121.798,561.256 122,559.5C 123.401,561.192 125.234,561.859 127.5,561.5C 119.395,566.39 111.062,571.057 102.5,575.5C 101.76,571.359 100.76,567.359 99.5,563.5C 97.4727,563.338 95.4727,563.505 93.5,564C 92.6064,566.068 91.9397,568.235 91.5,570.5C 92.647,572.731 93.647,575.065 94.5,577.5C 96.6179,576.054 98.9512,575.387 101.5,575.5C 98.9122,577.625 95.9122,578.958 92.5,579.5C 89.9003,573.032 87.9003,566.366 86.5,559.5 Z"/></g>
<g><path style="opacity:1" fill="#579643" d="M 102.5,575.5 C 102.167,575.5 101.833,575.5 101.5,575.5C 98.9512,575.387 96.6179,576.054 94.5,577.5C 93.647,575.065 92.647,572.731 91.5,570.5C 91.9397,568.235 92.6064,566.068 93.5,564C 95.4727,563.505 97.4727,563.338 99.5,563.5C 100.76,567.359 101.76,571.359 102.5,575.5 Z"/></g>
<g><path style="opacity:1" fill="#ebf9e4" d="M 85.5,559.5 C 85.8333,559.5 86.1667,559.5 86.5,559.5C 87.9003,566.366 89.9003,573.032 92.5,579.5C 91.5,579.5 90.5,579.5 89.5,579.5C 87.692,572.983 86.3586,566.317 85.5,559.5 Z"/></g>
<g><path style="opacity:1" fill="#54983f" d="M 570.5,578.5 C 570.5,579.833 570.5,581.167 570.5,582.5C 490.833,582.5 411.167,582.5 331.5,582.5C 331.389,581.883 331.056,581.383 330.5,581C 407.311,581.16 483.978,580.327 560.5,578.5C 562.523,580.173 564.856,580.84 567.5,580.5C 567.5,578.833 567.5,577.167 567.5,575.5C 568.5,575.5 569.5,575.5 570.5,575.5C 570.5,576.5 570.5,577.5 570.5,578.5 Z"/></g>
<g><path style="opacity:1" fill="#5f904e" d="M 573.5,575.5 C 573.534,578.199 572.867,580.699 571.5,583C 489.833,583.333 408.167,583.667 326.5,584C 324.35,585.411 322.016,586.245 319.5,586.5C 322.566,583.073 326.566,581.74 331.5,582.5C 411.167,582.5 490.833,582.5 570.5,582.5C 570.5,581.167 570.5,579.833 570.5,578.5C 571.9,577.9 572.9,576.9 573.5,575.5 Z"/></g>
<g><path style="opacity:1" fill="#edfae6" d="M 287.5,602.5 C 284.105,605.712 280.105,608.212 275.5,610C 272.126,610.521 269.126,611.854 266.5,614C 264.866,614.494 263.199,614.66 261.5,614.5C 264.591,613.023 267.591,611.356 270.5,609.5C 276.247,607.362 281.914,605.029 287.5,602.5 Z"/></g>
<g><path style="opacity:1" fill="#639355" d="M 270.5,609.5 C 267.591,611.356 264.591,613.023 261.5,614.5C 259.847,614.66 258.514,615.326 257.5,616.5C 256.833,616.5 256.167,616.5 255.5,616.5C 258.356,614.379 261.356,612.213 264.5,610C 266.473,609.505 268.473,609.338 270.5,609.5 Z"/></g>
<g><path style="opacity:1" fill="#d0eac9" d="M 255.5,616.5 C 256.167,616.5 256.833,616.5 257.5,616.5C 358.167,617.167 458.833,617.833 559.5,618.5C 457.499,618.667 355.499,618.5 253.5,618C 254.416,617.722 255.082,617.222 255.5,616.5 Z"/></g>
<g><path style="opacity:1" fill="#549842" d="M 559.5,619.5 C 559.5,620.5 559.5,621.5 559.5,622.5C 459.316,622.476 359.316,622.476 259.5,622.5C 258.033,623.292 256.7,623.292 255.5,622.5C 256.912,621.194 258.579,620.36 260.5,620C 360.166,619.5 459.833,619.333 559.5,619.5 Z"/></g>
<g><path style="opacity:1" fill="#5b9249" d="M 559.5,622.5 C 557.765,630.133 555.432,637.466 552.5,644.5C 553.924,637.562 554.924,630.562 555.5,623.5C 554.167,623.5 552.833,623.5 551.5,623.5C 549.558,635.373 548.224,635.373 547.5,623.5C 451.332,623.833 355.332,623.499 259.5,622.5C 359.316,622.476 459.316,622.476 559.5,622.5 Z"/></g>
<g><path style="opacity:1" fill="#639451" d="M 111.5,641.5 C 112.497,641.47 113.164,641.97 113.5,643C 115.173,650.519 117.84,657.686 121.5,664.5C 124.093,666.071 125.093,668.404 124.5,671.5C 117.468,662.76 113.135,652.76 111.5,641.5 Z"/></g>
<g><path style="opacity:1" fill="#effaeb" d="M 533.5,680.5 C 533.096,681.756 532.429,682.923 531.5,684C 533.993,687.865 533.16,688.365 529,685.5C 527.831,686.009 526.998,686.842 526.5,688C 527.34,689.666 526.84,689.833 525,688.5C 518.855,693.668 511.688,696.001 503.5,695.5C 506.167,694.5 508.833,693.5 511.5,692.5C 519.415,689.543 526.748,685.543 533.5,680.5 Z"/></g>
<g><path style="opacity:1" fill="#5c924c" d="M 146.5,689.5 C 150.76,690.796 155.094,691.796 159.5,692.5C 159.5,691.5 159.5,690.5 159.5,689.5C 161.924,689.192 164.257,689.526 166.5,690.5C 165.5,691.333 164.5,692.167 163.5,693C 165.909,693.935 168.409,694.435 171,694.5C 279.845,693.172 388.678,693.172 497.5,694.5C 501.922,692.7 506.589,692.033 511.5,692.5C 508.833,693.5 506.167,694.5 503.5,695.5C 394.188,696.492 284.855,696.825 175.5,696.5C 171.833,696.5 168.167,696.5 164.5,696.5C 158.066,695.354 152.066,693.021 146.5,689.5 Z"/></g>
<g><path style="opacity:1" fill="#f0feea" d="M 503.5,695.5 C 501.786,696.738 499.786,697.405 497.5,697.5C 389.999,697.833 282.665,697.499 175.5,696.5C 284.855,696.825 394.188,696.492 503.5,695.5 Z"/></g>
<g><path style="opacity:1" fill="#fafef6" d="M 164.5,696.5 C 168.167,696.5 171.833,696.5 175.5,696.5C 282.665,697.499 389.999,697.833 497.5,697.5C 390.167,698.167 282.833,698.833 175.5,699.5C 172.5,699.5 169.5,699.5 166.5,699.5C 166.611,698.883 166.944,698.383 167.5,698C 166.263,697.768 165.263,697.268 164.5,696.5 Z"/></g>
</svg>
